<svg xmlns="http://www.w3.org/2000/svg" viewBox="0 0 548 548"><path d="M545 400l-1-3c-10-17-28-38-55-63l-1-1v-1c-13-11-20-19-23-23-6-8-8-15-4-23 2-6 10-18 25-37l19-25c33-43 47-71 43-84l-2-3c-1-1-4-3-9-4-5-2-11-2-18-1l-82 1h-6l-4 1h-1l-1 1-4 3-2 5a466 466 0 01-65 114l-11 10c-3 3-6 4-8 3l-4-1-7-7c-1-3-3-7-3-11a123 123 0 01-1-25 424 424 0 001-36 4097 4097 0 010-49 44 44 0 00-3-9l-6-7-10-4c-10-2-23-3-38-3-36-1-58 2-68 7l-11 8c-4 4-4 7-2 7 12 2 20 6 25 12l1 4a133 133 0 017 34 222 222 0 01-7 72l-3 6-2 2a21 21 0 01-7 1c-3 0-6-1-10-4l-12-11-14-19-16-30-4-8a712 712 0 01-25-53c-2-4-4-7-7-9l-1-1-5-3a30 30 0 00-6-2l-79 1c-8 0-13 2-16 5l-1 2-1 5 2 7a942 942 0 00130 216l8 7 20 16c9 7 18 13 29 19a160 160 0 0079 20h33c7-1 12-3 15-6l1-2 3-5 1-8c-1-8 0-15 1-22l5-15a36 36 0 0111-12l3-1c4-2 10 0 16 4 6 5 12 10 17 17a507 507 0 0040 40l5 3c4 3 9 5 15 7s12 2 16 1l73-1c8 0 13-1 17-4 4-2 7-5 7-7v-10l-2-8z"/></svg>