<svg viewBox="0 0 90 90" xmlns="http://www.w3.org/2000/svg"><path d="M90 43.8a44 44 0 01-65.6 38.3L0 90l8-23.5A43.9 43.9 0 0145.8 0 44 44 0 0190 43.8zM45.8 7A37 37 0 008.7 43.8a36 36 0 007.1 21.6l-4.6 13.7 14.3-4.5A37 37 0 0083 43.8 37 37 0 0045.8 7zm22.3 46.9c-.3-.4-1-.7-2.1-1.3l-7.4-3.5c-1-.4-1.7-.5-2.4.5-.7 1.1-2.8 3.5-3.4 4.2-.6.7-1.3.8-2.3.3-1.1-.5-4.6-1.7-8.7-5.3a32.4 32.4 0 01-6-7.4c-.6-1.1-.1-1.7.5-2.2l1.6-1.9c.5-.6.7-1.1 1.1-1.8.4-.7.2-1.3-.1-1.9l-3.3-8c-.9-2.1-1.8-1.8-2.4-1.8l-2.1-.1c-.7 0-1.9.3-2.9 1.3-1 1.1-3.8 3.7-3.8 9s3.9 10.4 4.4 11.1c.5.7 7.5 11.9 18.5 16.2 11 4.3 11 2.9 13 2.7 2-.2 6.4-2.6 7.3-5.1.8-2.4.8-4.5.5-5z"/></svg>