<svg xmlns="http://www.w3.org/2000/svg" viewBox="0 0 439 439"><path d="M422 17a54 54 0 00-40-17H56C41 0 28 6 17 17A54 54 0 000 56v326c0 16 6 29 17 40s24 17 39 17h326c16 0 29-6 40-17s17-24 17-40V56c0-15-6-28-17-39zM157 158c18-17 38-25 63-25 24 0 45 8 62 25s26 37 26 60c0 24-9 44-26 61a86 86 0 01-62 25c-25 0-45-9-63-25a81 81 0 01-25-61c0-23 8-43 25-60zm232 213a17 17 0 01-17 17H65c-5 0-9-2-12-5-4-3-5-7-5-12V186h40a125 125 0 0034 131c27 25 59 38 97 38a137 137 0 00118-66 127 127 0 0012-103h39v185zm0-255c0 5-2 10-6 14-4 3-8 5-14 5h-50c-5 0-10-2-14-5-3-4-5-9-5-14V69c0-6 2-10 5-14 4-4 9-6 14-6h50c6 0 10 2 14 6s6 8 6 14v47z"/></svg>