<svg xmlns="http://www.w3.org/2000/svg" viewBox="0 0 52.5 52.5"><path d="M31.3 0h-10a19 19 0 00-19 19v9a19 19 0 0012 17.7v5.8a1 1 0 001.6.8l5.8-5.3h9.6a19 19 0 0019-19v-9a19 19 0 00-19-19zm17 28a17 17 0 01-17 17h-10a1 1 0 00-.6.3l-4.4 4V45a1 1 0 00-.7-1A17 17 0 014.3 28v-9a17 17 0 0117-17h10a17 17 0 0117 17v9z"/><path d="M39.5 30.5l-6.2-4a3 3 0 00-4.1.9l-.3.4a10 10 0 01-7.4-7l.8-.7a3 3 0 00.3-4.2l-4.9-5.6a1 1 0 00-1.4 0l-3 2.6c-2.6 2.3-1.4 5.7-1 6.8v.1c.2.2 2.7 4.7 6.7 8.8a55 55 0 0011.7 8.1 5 5 0 006.9-1.5l2.2-3.3c.3-.5.1-1.1-.3-1.4zM35.9 34a3 3 0 01-4.2.9c-.1 0-7.4-3.9-11.2-7.8-3.6-3.6-6-7.7-6.3-8.3-.8-2.2-.7-3.6.4-4.5l2.3-2 4.1 4.8c.4.4.4 1 0 1.4l-1.3 1a1 1 0 00-.3 1.1c2.1 6.8 6.2 8.1 9.2 9.1l.4.2c.4.1.9 0 1.1-.4l.8-1.1a1 1 0 011.3-.3l5.3 3.4-1.6 2.5zm-7.4-17.8a1 1 0 10-.5 2c1.5.4 2.7 1.6 3 3a1 1 0 002-.5 6.5 6.5 0 00-4.5-4.5z"/><path d="M36.1 22.2h.3c.6-.2.9-.7.7-1.3a12.7 12.7 0 00-8.7-8.7 1 1 0 10-.5 2c3.5 1 6.3 3.8 7.3 7.3.1.4.5.7 1 .7z"/><path d="M28 7.6a1 1 0 10-.5 2C33.3 11.1 38 16 39.7 21.8a1 1 0 002-.5c-2-6.6-7.2-12-13.8-13.8z"/></svg>