<svg xmlns="http://www.w3.org/2000/svg" xmlns:xlink="http://www.w3.org/1999/xlink"><symbol id="fb" viewBox="0 0 512 512"><path d="M308.3 508.5c-2.5.1-4.1.3-5.7.3-34.2 0-68.3-.1-102.5.1-4.8 0-6.1-1.3-6.1-6.1.1-79.6.1-159.3.1-238.9V257H139v-85h5.4c15 0 30-.1 45 .1 3.8 0 4.8-1.1 4.8-4.8-.2-22.3-.2-44.7 0-67 .1-15.6 2.6-30.8 9.8-44.9 10.3-19.9 26.6-32.8 47.2-40.8 16.8-6.6 34.5-9 52.3-9.3 29-.4 58-.2 87-.3 2.7 0 4.9-.1 4.9 3.7-.1 27.5-.1 55-.1 82.5 0 .3-.1.6-.5 1.9h-5.5c-18 0-36-.1-54 0-10.4 0-18.8 4.2-24.1 13.3-1.6 2.7-2.6 6.2-2.6 9.4-.3 17 0 34-.2 51 0 4 1.2 5.1 5.1 5.1 25-.2 50-.1 75-.1h7.3c-3.5 28.6-6.9 56.6-10.4 84.9h-77.1v251.8z"/></symbol><symbol id="insta" viewBox="0 0 439 439"><path d="M422 17a54 54 0 00-40-17H56C41 0 28 6 17 17A54 54 0 000 56v326c0 16 6 29 17 40s24 17 39 17h326c16 0 29-6 40-17s17-24 17-40V56c0-15-6-28-17-39zM157 158c18-17 38-25 63-25 24 0 45 8 62 25s26 37 26 60c0 24-9 44-26 61a86 86 0 01-62 25c-25 0-45-9-63-25a81 81 0 01-25-61c0-23 8-43 25-60zm232 213a17 17 0 01-17 17H65c-5 0-9-2-12-5-4-3-5-7-5-12V186h40a125 125 0 0034 131c27 25 59 38 97 38a137 137 0 00118-66 127 127 0 0012-103h39v185zm0-255c0 5-2 10-6 14-4 3-8 5-14 5h-50c-5 0-10-2-14-5-3-4-5-9-5-14V69c0-6 2-10 5-14 4-4 9-6 14-6h50c6 0 10 2 14 6s6 8 6 14v47z"/></symbol><symbol id="telegram" viewBox="0 0 20 16.8"><path d="M18.7.1L.4 7.2c-.6.2-.5 1.1 0 1.3l4.7 1.4 1.7 5.5c.2.6.9.7 1.3.3l2.4-2.4 4.7 3.4a1 1 0 001.6-.6l3.2-15a1 1 0 00-1.3-1zm-2.3 3.3l-8.5 7.5-.1.3-.3 2.9c0 .1-.1.1-.2 0L5.9 9.8c0-.2 0-.4.2-.5l10-6.3c.3-.1.5.2.3.4z"/></symbol><symbol id="viber" viewBox="0 0 52.5 52.5"><path d="M31.3 0h-10a19 19 0 00-19 19v9a19 19 0 0012 17.7v5.8a1 1 0 001.6.8l5.8-5.3h9.6a19 19 0 0019-19v-9a19 19 0 00-19-19zm17 28a17 17 0 01-17 17h-10a1 1 0 00-.6.3l-4.4 4V45a1 1 0 00-.7-1A17 17 0 014.3 28v-9a17 17 0 0117-17h10a17 17 0 0117 17v9z"/><path d="M39.5 30.5l-6.2-4a3 3 0 00-4.1.9l-.3.4a10 10 0 01-7.4-7l.8-.7a3 3 0 00.3-4.2l-4.9-5.6a1 1 0 00-1.4 0l-3 2.6c-2.6 2.3-1.4 5.7-1 6.8v.1c.2.2 2.7 4.7 6.7 8.8a55 55 0 0011.7 8.1 5 5 0 006.9-1.5l2.2-3.3c.3-.5.1-1.1-.3-1.4zM35.9 34a3 3 0 01-4.2.9c-.1 0-7.4-3.9-11.2-7.8-3.6-3.6-6-7.7-6.3-8.3-.8-2.2-.7-3.6.4-4.5l2.3-2 4.1 4.8c.4.4.4 1 0 1.4l-1.3 1a1 1 0 00-.3 1.1c2.1 6.8 6.2 8.1 9.2 9.1l.4.2c.4.1.9 0 1.1-.4l.8-1.1a1 1 0 011.3-.3l5.3 3.4-1.6 2.5zm-7.4-17.8a1 1 0 10-.5 2c1.5.4 2.7 1.6 3 3a1 1 0 002-.5 6.5 6.5 0 00-4.5-4.5z"/><path d="M36.1 22.2h.3c.6-.2.9-.7.7-1.3a12.7 12.7 0 00-8.7-8.7 1 1 0 10-.5 2c3.5 1 6.3 3.8 7.3 7.3.1.4.5.7 1 .7z"/><path d="M28 7.6a1 1 0 10-.5 2C33.3 11.1 38 16 39.7 21.8a1 1 0 002-.5c-2-6.6-7.2-12-13.8-13.8z"/></symbol><symbol id="vk" viewBox="0 0 548 548"><path d="M545 400l-1-3c-10-17-28-38-55-63l-1-1v-1c-13-11-20-19-23-23-6-8-8-15-4-23 2-6 10-18 25-37l19-25c33-43 47-71 43-84l-2-3c-1-1-4-3-9-4-5-2-11-2-18-1l-82 1h-6l-4 1h-1l-1 1-4 3-2 5a466 466 0 01-65 114l-11 10c-3 3-6 4-8 3l-4-1-7-7c-1-3-3-7-3-11a123 123 0 01-1-25 424 424 0 001-36 4097 4097 0 010-49 44 44 0 00-3-9l-6-7-10-4c-10-2-23-3-38-3-36-1-58 2-68 7l-11 8c-4 4-4 7-2 7 12 2 20 6 25 12l1 4a133 133 0 017 34 222 222 0 01-7 72l-3 6-2 2a21 21 0 01-7 1c-3 0-6-1-10-4l-12-11-14-19-16-30-4-8a712 712 0 01-25-53c-2-4-4-7-7-9l-1-1-5-3a30 30 0 00-6-2l-79 1c-8 0-13 2-16 5l-1 2-1 5 2 7a942 942 0 00130 216l8 7 20 16c9 7 18 13 29 19a160 160 0 0079 20h33c7-1 12-3 15-6l1-2 3-5 1-8c-1-8 0-15 1-22l5-15a36 36 0 0111-12l3-1c4-2 10 0 16 4 6 5 12 10 17 17a507 507 0 0040 40l5 3c4 3 9 5 15 7s12 2 16 1l73-1c8 0 13-1 17-4 4-2 7-5 7-7v-10l-2-8z"/></symbol><symbol id="whatsapp" viewBox="0 0 90 90"><path d="M90 43.8a44 44 0 01-65.6 38.3L0 90l8-23.5A43.9 43.9 0 0145.8 0 44 44 0 0190 43.8zM45.8 7A37 37 0 008.7 43.8a36 36 0 007.1 21.6l-4.6 13.7 14.3-4.5A37 37 0 0083 43.8 37 37 0 0045.8 7zm22.3 46.9c-.3-.4-1-.7-2.1-1.3l-7.4-3.5c-1-.4-1.7-.5-2.4.5-.7 1.1-2.8 3.5-3.4 4.2-.6.7-1.3.8-2.3.3-1.1-.5-4.6-1.7-8.7-5.3a32.4 32.4 0 01-6-7.4c-.6-1.1-.1-1.7.5-2.2l1.6-1.9c.5-.6.7-1.1 1.1-1.8.4-.7.2-1.3-.1-1.9l-3.3-8c-.9-2.1-1.8-1.8-2.4-1.8l-2.1-.1c-.7 0-1.9.3-2.9 1.3-1 1.1-3.8 3.7-3.8 9s3.9 10.4 4.4 11.1c.5.7 7.5 11.9 18.5 16.2 11 4.3 11 2.9 13 2.7 2-.2 6.4-2.6 7.3-5.1.8-2.4.8-4.5.5-5z"/></symbol><symbol id="youtube" viewBox="0 0 30.8 20.6"><path d="M30.5 4.4c-.2-1-.6-2-1.2-2.9C28.5.8 27.5.3 26.2.32.9 0 15.4 0 15.4 0S8.9 0 4.6.3C3.4.3 2.3.7 1.5 1.5.9 2.3.5 3.4.3 4.4.2 6 0 7.6 0 9.2v2.2c0 1.6.2 3.2.3 4.7.2 1 .6 2 1.2 2.9.9.7 2.2 1.3 3.4 1.3 2.5.3 10.5.3 10.5.3s6.5 0 10.8-.3c1.2 0 2.3-.4 3.1-1.3.6-.9 1.1-1.9 1.2-2.9.2-1.6.3-3.2.3-4.7V9.2c0-1.6 0-3.2-.3-4.8zM12.2 14V5.8l8.3 4.1-8.3 4.1z"/></symbol></svg>